<?xml version="1.0" standalone="no"?>
<!DOCTYPE svg PUBLIC "-//W3C//DTD SVG 20010904//EN"
 "http://www.w3.org/TR/2001/REC-SVG-20010904/DTD/svg10.dtd">
<svg version="1.0" xmlns="http://www.w3.org/2000/svg"
 width="592.000000pt" height="592.000000pt" viewBox="0 0 592.000000 592.000000"
 preserveAspectRatio="xMidYMid meet">
<metadata>
Created by potrace 1.14, written by Peter Selinger 2001-2017
</metadata>
<g transform="translate(0.000000,592.000000) scale(0.100000,-0.100000)"
fill="#000000" stroke="none">
<path d="M2347 5384 c-1 -1 -40 -5 -87 -8 -47 -4 -114 -11 -150 -17 -36 -6
-76 -12 -90 -14 -14 -3 -43 -9 -65 -15 -22 -5 -56 -13 -75 -16 -19 -3 -43 -10
-52 -15 -10 -5 -18 -8 -18 -5 0 7 -188 -58 -290 -101 -85 -35 -222 -105 -292
-149 -21 -13 -42 -24 -48 -24 -5 0 -10 -4 -10 -8 0 -5 -11 -14 -25 -20 -14 -7
-31 -17 -38 -22 -7 -6 -43 -34 -82 -62 -327 -241 -615 -608 -772 -986 -99
-240 -167 -512 -190 -757 -17 -188 -6 -514 22 -645 3 -14 8 -43 11 -65 3 -22
12 -63 20 -92 9 -29 17 -64 20 -79 8 -44 83 -263 105 -305 11 -22 17 -39 15
-39 -3 0 26 -60 63 -134 63 -124 189 -325 243 -388 13 -14 32 -39 43 -54 78
-107 281 -302 422 -405 32 -24 60 -46 61 -51 2 -4 7 -8 12 -8 4 0 39 -20 77
-45 37 -25 115 -69 173 -97 58 -29 106 -56 108 -60 2 -5 9 -8 15 -8 7 0 60
-20 120 -44 59 -24 107 -42 107 -41 0 2 15 -2 33 -10 17 -7 35 -14 39 -14 12
-2 29 -7 68 -19 19 -6 71 -18 115 -27 44 -9 87 -18 97 -20 9 -2 38 -7 65 -11
26 -3 57 -8 68 -10 98 -18 528 -25 675 -11 108 10 148 15 310 42 187 32 438
111 620 196 36 17 67 31 70 32 13 3 225 131 228 139 2 4 8 8 13 8 37 0 343
271 463 409 60 71 195 261 244 346 22 39 146 290 163 330 42 99 121 336 134
400 7 32 38 162 41 174 3 10 8 11 15 4 7 -7 10 -343 10 -1001 0 -546 4 -994 8
-997 5 -2 35 -4 67 -5 32 0 77 0 99 -1 22 -1 47 -1 55 0 8 0 62 0 120 0 58 -1
112 -1 120 0 8 0 61 0 118 1 56 0 102 3 103 7 1 5 2 1069 3 2365 1 1564 -2
2359 -9 2361 -16 5 -843 2 -848 -3 -2 -3 -49 -72 -105 -155 -56 -82 -105 -154
-110 -160 -4 -5 -32 -46 -62 -90 -29 -44 -57 -81 -62 -83 -4 -2 -8 -8 -8 -12
0 -5 -60 -96 -133 -202 -73 -106 -158 -231 -190 -278 -32 -47 -105 -152 -163
-235 -57 -82 -107 -157 -111 -165 -4 -8 -9 -17 -12 -20 -4 -3 -34 -45 -67 -95
-34 -49 -75 -110 -93 -135 -17 -25 -57 -83 -88 -130 -31 -47 -59 -87 -62 -90
-3 -3 -39 -54 -80 -115 -66 -98 -310 -454 -317 -464 -2 -2 -320 -4 -706 -4
-387 0 -705 -3 -708 -8 -4 -5 -5 -509 -1 -604 1 -20 6 -21 482 -20 264 0 482
-2 484 -6 5 -7 -154 -242 -166 -247 -5 -2 -9 -7 -9 -12 0 -7 -127 -199 -139
-210 -3 -3 -33 -45 -66 -95 -33 -49 -62 -92 -65 -95 -3 -3 -31 -43 -62 -90
-78 -117 -176 -259 -203 -296 -20 -25 -29 -30 -54 -26 -17 2 -34 8 -37 13 -3
5 -15 9 -26 9 -49 0 -397 147 -406 171 -2 5 -8 9 -14 9 -31 0 -276 186 -372
282 -87 87 -256 304 -256 328 0 6 -4 10 -8 10 -7 0 -110 198 -133 255 -4 11
-15 38 -24 60 -31 76 -77 254 -90 345 -25 174 -25 469 0 590 3 14 8 41 11 60
3 19 7 42 9 50 2 8 7 30 10 47 3 18 17 70 31 115 15 46 27 88 28 93 1 6 7 20
14 32 7 12 12 26 12 31 0 18 72 165 124 252 136 232 337 440 567 588 36 23 70
42 76 42 6 0 13 3 15 8 3 7 48 30 138 70 125 57 323 111 465 127 33 4 69 9 80
11 25 5 278 4 328 -1 21 -2 55 -6 75 -10 20 -3 51 -8 67 -10 180 -24 532 -144
640 -219 17 -12 31 -20 33 -18 2 3 22 -9 127 -76 39 -25 72 -48 75 -52 3 -4
12 -11 21 -16 26 -15 99 -75 151 -126 26 -26 54 -45 61 -42 6 3 21 19 33 37
32 50 74 109 218 307 l134 185 -41 39 c-23 21 -58 50 -77 65 -19 14 -42 33
-51 41 -20 17 -21 18 -101 78 -31 23 -59 42 -62 42 -3 0 -24 13 -48 29 -62 41
-121 73 -228 126 -107 52 -112 55 -195 85 -33 13 -69 26 -80 31 -35 14 -170
53 -178 51 -4 -1 -16 2 -25 7 -9 5 -34 12 -54 15 -21 3 -58 10 -83 16 -25 6
-65 13 -88 16 -23 2 -54 7 -68 9 -97 17 -250 27 -427 29 -84 1 -154 1 -155 0z
m2823 -1051 c3 -487 0 -1467 -4 -1471 -9 -8 -986 -8 -986 1 0 8 31 59 41 67 3
3 19 27 35 53 16 27 38 63 49 81 34 56 299 470 307 481 15 19 128 196 128 199
0 4 51 84 80 126 6 8 45 69 86 135 79 124 131 204 202 314 23 35 42 67 42 72
0 5 5 9 10 9 6 0 10 -29 10 -67z m-865 -2114 c3 -4 -15 -49 -40 -100 -68 -141
-104 -201 -189 -314 -67 -89 -243 -267 -308 -311 -24 -15 -47 -33 -53 -39 -17
-20 -176 -112 -275 -159 -95 -45 -336 -130 -397 -139 l-33 -5 103 151 c56 84
104 154 107 157 5 5 30 42 55 81 23 36 68 103 77 113 5 6 54 79 110 161 55 83
140 209 189 280 l89 130 279 0 c154 0 282 -3 286 -6z"/>
</g>
</svg>
